<?xml version="1.0" encoding="UTF-8"?>
<svg width="64" height="64" viewBox="0 0 64 64" xmlns="http://www.w3.org/2000/svg">
  <!-- 배경 -->
  <rect width="64" height="64" rx="12" fill="#1E293B"/>
  
  <!-- 스크롤 문서 -->
  <path d="M16 12C16 10.8954 16.8954 10 18 10H40C41.1046 10 42 10.8954 42 12V48C42 49.1046 41.1046 50 40 50H18C16.8954 50 16 49.1046 16 48V12Z" fill="#E2E8F0"/>
  
  <!-- 스크롤 상단 말림 -->
  <path d="M40 10C41.1046 10 42 10.8954 42 12V14C42 12.8954 41.1046 12 40 12H18C16.8954 12 16 12.8954 16 14V12C16 10.8954 16.8954 10 18 10H40Z" fill="#CBD5E1"/>
  
  <!-- 스크롤 내부 줄 -->
  <line x1="20" y1="18" x2="38" y2="18" stroke="#94A3B8" stroke-width="2" stroke-linecap="round"/>
  <line x1="20" y1="24" x2="38" y2="24" stroke="#94A3B8" stroke-width="2" stroke-linecap="round"/>
  <line x1="20" y1="30" x2="32" y2="30" stroke="#94A3B8" stroke-width="2" stroke-linecap="round"/>
  <line x1="20" y1="36" x2="30" y2="36" stroke="#94A3B8" stroke-width="2" stroke-linecap="round"/>
  <line x1="20" y1="42" x2="34" y2="42" stroke="#94A3B8" stroke-width="2" stroke-linecap="round"/>
  
  <!-- 펜 -->
  <path d="M34 26L48 12L52 16L38 30L34 32L34 26Z" fill="#F59E0B" stroke="#F59E0B" stroke-width="1"/>
  <path d="M48 12L52 16" stroke="#78350F" stroke-width="2" stroke-linecap="round"/>
  <path d="M34 26L34 32L38 30" fill="#F59E0B" stroke="#FBBF24" stroke-width="1" stroke-linejoin="round"/>
  
  <!-- 잉크 방울 -->
  <circle cx="44" cy="42" r="3" fill="#F59E0B"/>
  <circle cx="50" cy="36" r="2" fill="#F59E0B"/>
</svg> 